<svg xmlns="http://www.w3.org/2000/svg" xmlns:xlink="http://www.w3.org/1999/xlink" id="Layer_1" width="2000" height="2000" x="0" style="enable-background:new 0 0 2000 2000" y="0" version="1.1" viewBox="0 0 2000 2000" xml:space="preserve"><style type="text/css">.st0{fill:#ffeedc}.st1{fill:#f99338}.st2{fill:#ffa45a}.st3{fill:#fc9d4f}</style><g id="layer102"><circle cx="1000" cy="1000" r="1000" class="st0"/><path d="M1068.9,1010.5c-80.8,4.6-174.8,0.9-262.9-9.4c-272.3-32.2-469.7-124.6-521.4-244c-4.4-10-7.3-14.3-8.5-11.2 c-1.8,5.5-17.6,137.9-22.6,189.9c-4.7,49.2-4.7,160.1,0,196c13.5,103.6,45.8,174.7,108.4,238.2 c106.3,108.2,293.1,173.2,545.4,189.9c79.3,5.2,271.4,2.4,300.5-4.3l6.5-1.5v-309.9c10.6-82,21.3-164,31.9-246 C1219.3,1000.9,1124.8,1007.5,1068.9,1010.5z" class="st1"/><path d="M1746.5,858.9c-3.5-32.8-11.7-86-13.5-87.8c-0.3-0.6-142.5-0.6-315.8-0.3l-314.9,0.9l76.7,112.4 c42.3,61.7,75.8,112.7,74.3,113c-10.9,82.3-21.9,164.7-32.8,247h249.3c202.1,0,256.1-0.9,257-3.6c2.6-7.9,12.9-90.5,17.9-142.2 C1750.9,1034.5,1751.8,909,1746.5,858.9z M1412.6,1168.5c-6.5,3-17,5.8-23.5,5.8c-57,0-78.4-79-29.7-109.7 c19.7-12.5,45.2-10.3,64.9,5.2c10,7.9,22,31.9,22,44.4C1446.3,1136.9,1432.5,1159.3,1412.6,1168.5z M1558.8,997.7 c-8.8,4.6-17.9,6.4-31.1,6.4c-69,0-101-86.3-49.6-134.3c35.2-32.8,93.1-21.3,116,23.4c5,9.4,6.5,17.6,6.5,34.9 C1600.5,961.9,1587.9,982.5,1558.8,997.7z M1642.5,1140.8c-18.5,11.5-44.9,5.8-53.8-12.2c-5.6-11.5-5.6-33.1,0.3-41.9 c14.4-21.3,49.3-20.7,64,1.2C1664.6,1105,1659.6,1129.9,1642.5,1140.8z" class="st2"/><path d="M897.1,962.5C618.9,946.1,382.8,854.9,329.9,744c-8.2-17.3-9.7-23.7-9.7-42.2s1.5-24.9,9.7-42.2 c46.4-97.2,227.9-179.3,465.8-209.6c103.7-13.4,250.5-16.4,337.8-6.7c202.7,22.2,381.8,78.4,492,154.7 c32.9,22.8,73.4,65.9,84.6,90.2c5,10.9,9.7,22.8,10.9,26.4l1.8,7l-354.2,0.6l-354.2,0.9l79.9,116.4c43.8,64.1,79,117,78.4,117.3 C1166.7,961.9,959.9,966.1,897.1,962.5z M996.9,889.8c22.6-9.4,21.7-24-2.1-33.4c-30.5-12.2-83.1-2.7-83.1,14.9 c0,8.5,7.6,16.7,19.4,20.4C946.1,896.2,984,895,996.9,889.8z M633.6,815.7c9.4-3.6,21.7-11.2,27.3-17c13.8-14.6,13.5-25.5-1.2-40.7 c-30.5-31.9-119.8-32.8-151.9-1.8c-24.4,24-2.6,55,46.1,65.6C574.3,826.3,614.2,823.3,633.6,815.7z M1054.8,634.3 c15-7.3,15.3-17.9,0.9-26.4c-14.7-9.1-64.6-10.6-79-2.7s-17.6,14.3-10.6,22.2C979.6,642.5,1030.4,646.8,1054.8,634.3z M1296.5,634.3c21.4-7.3,35.2-21,35.2-35.5c0-13.7-8.8-23.7-28.8-33.1c-19.4-8.8-63.7-10.9-87.5-3.6c-20.9,6.1-39.4,23.4-39.4,36.5 c0,11.5,18.5,29.2,37,35.5C1232.8,641,1276.6,641,1296.5,634.3z M794.3,589c16.7-5.2,35.2-21.6,35.2-31.6c0-3.9-4.4-11.2-10.3-17 c-27.6-26.7-103.1-29.2-136.3-3.9c-10,7.3-12,10.6-12,19.1c0,17.9,24.1,33.7,60.2,39.5C744.9,597.2,778.4,593.9,794.3,589z" class="st3"/></g></svg>